<svg width="2400" height="1743" xmlns="http://www.w3.org/2000/svg" xmlns:xlink="http://www.w3.org/1999/xlink" xml:space="preserve" overflow="hidden"><g transform="translate(-1826 -470)"><path d="M1828.5 1667.5C1828.5 1367.61 2073.62 1124.5 2376 1124.5 2678.38 1124.5 2923.5 1367.61 2923.5 1667.5 2923.5 1967.39 2678.38 2210.5 2376 2210.5 2073.62 2210.5 1828.5 1967.39 1828.5 1667.5Z" stroke="#FFFFFF" stroke-width="4.58333" stroke-miterlimit="8" fill="#00A9E0" fill-rule="evenodd" fill-opacity="0.501961"/><text fill="#0C0E0D" font-family="Arial,Arial_MSFontService,sans-serif" font-weight="700" font-size="64" transform="matrix(1 0 0 1 2244.32 1832)">Métodos</text><text fill="#0C0E0D" font-family="Arial,Arial_MSFontService,sans-serif" font-weight="700" font-size="64" transform="matrix(1 0 0 1 2179.85 1928)">matemáticos</text><path d="M1835.5 1015C1835.5 715.386 2080.85 472.5 2383.5 472.5 2686.15 472.5 2931.5 715.386 2931.5 1015 2931.5 1314.61 2686.15 1557.5 2383.5 1557.5 2080.85 1557.5 1835.5 1314.61 1835.5 1015Z" stroke="#FFFFFF" stroke-width="4.58333" stroke-miterlimit="8" fill="#98C873" fill-rule="evenodd" fill-opacity="0.501961"/><text fill="#0C0E0D" font-family="Arial,Arial_MSFontService,sans-serif" font-weight="700" font-size="64" transform="matrix(1 0 0 1 2283.45 649)">Óptica</text><path d="M2112.5 900.5C2112.5 781.206 2230.47 684.5 2376 684.5 2521.53 684.5 2639.5 781.206 2639.5 900.5 2639.5 1019.79 2521.53 1116.5 2376 1116.5 2230.47 1116.5 2112.5 1019.79 2112.5 900.5Z" stroke="#FFFFFF" stroke-width="4.58333" stroke-miterlimit="8" fill="#87CC9F" fill-rule="evenodd" fill-opacity="0.501961"/><text fill="#0C0E0D" font-family="Arial,Arial_MSFontService,sans-serif" font-weight="700" font-size="55" transform="matrix(1 0 0 1 2252.04 888)">Sensores</text><text fill="#0C0E0D" font-family="Arial,Arial_MSFontService,sans-serif" font-weight="700" font-size="55" transform="matrix(1 0 0 1 2277.55 947)">ópticos</text><path d="M3677.5 1350.5C3677.5 1199.73 3799.73 1077.5 3950.5 1077.5 4101.27 1077.5 4223.5 1199.73 4223.5 1350.5 4223.5 1501.27 4101.27 1623.5 3950.5 1623.5 3799.73 1623.5 3677.5 1501.27 3677.5 1350.5Z" stroke="#FFFFFF" stroke-width="4.58333" stroke-miterlimit="8" fill="#C24A49" fill-rule="evenodd" fill-opacity="0.501961"/><text fill="#0C0E0D" font-family="Arial,Arial_MSFontService,sans-serif" font-weight="700" font-size="92" transform="matrix(1 0 0 1 3836.01 1329)">Tesis </text><text fill="#0C0E0D" font-family="Arial,Arial_MSFontService,sans-serif" font-weight="700" font-size="92" transform="matrix(1 0 0 1 3855.24 1428)">SCE</text><path d="M2936.5 1350C2936.5 1185.14 3071.49 1051.5 3238 1051.5 3404.51 1051.5 3539.5 1185.14 3539.5 1350 3539.5 1514.86 3404.51 1648.5 3238 1648.5 3071.49 1648.5 2936.5 1514.86 2936.5 1350Z" stroke="#FFFFFF" stroke-width="4.58333" stroke-miterlimit="8" fill="#C5AF5E" fill-rule="evenodd" fill-opacity="0.501961"/><text fill="#0C0E0D" font-family="Arial,Arial_MSFontService,sans-serif" font-weight="700" font-size="64" transform="matrix(1 0 0 1 3081 1336)">Índices</text><text fill="#0C0E0D" font-family="Arial,Arial_MSFontService,sans-serif" font-weight="700" font-size="64" transform="matrix(1 0 0 1 3318.76 1336)">de </text><text fill="#0C0E0D" font-family="Arial,Arial_MSFontService,sans-serif" font-weight="700" font-size="64" transform="matrix(1 0 0 1 3070.41 1405)">vegetación</text><path d="M2051.5 1341C2051.5 1221.43 2196.78 1124.5 2376 1124.5 2555.22 1124.5 2700.5 1221.43 2700.5 1341 2700.5 1460.57 2555.22 1557.5 2376 1557.5 2196.78 1557.5 2051.5 1460.57 2051.5 1341Z" stroke="#FFFFFF" stroke-width="4.58333" stroke-miterlimit="8" fill="#9ACAD1" fill-rule="evenodd" fill-opacity="0.501961"/><text fill="#0C0E0D" font-family="Arial,Arial_MSFontService,sans-serif" font-weight="700" font-size="55" transform="matrix(1 0 0 1 2178.71 1328)">Procesamiento</text><text fill="#0C0E0D" font-family="Arial,Arial_MSFontService,sans-serif" font-weight="700" font-size="55" transform="matrix(1 0 0 1 2209.07 1387)">de </text><text fill="#0C0E0D" font-family="Arial,Arial_MSFontService,sans-serif" font-weight="700" font-size="55" transform="matrix(1 0 0 1 2288.71 1387)">imágenes</text><path d="M2812.5 1347.06 2907.78 1347.06 2907.78 1353.94 2812.5 1353.94ZM2903.2 1336.75 2930.7 1350.5 2903.2 1364.25Z" fill="#FF8F1B"/><path d="M1.7969e-05-3.4375 115.162-3.4369 115.162 3.4381-1.7969e-05 3.4375ZM110.579-13.7494 138.079 0.000721785 110.579 13.7506Z" fill="#FF8F1B" transform="matrix(1 0 0 -1 3539.5 1350.5)"/></g></svg>